<?xml version="1.0" encoding="utf-8"?>
<!-- Generator: Adobe Illustrator 25.3.1, SVG Export Plug-In . SVG Version: 6.00 Build 0)  -->
<svg version="1.1" id="图层_1" xmlns="http://www.w3.org/2000/svg" xmlns:xlink="http://www.w3.org/1999/xlink" x="0px" y="0px"
	 width="256px" height="256px" viewBox="0 0 256 256" style="enable-background:new 0 0 256 256;" xml:space="preserve">
<style type="text/css">
	.st0{opacity:5.500000e-02;fill-rule:evenodd;clip-rule:evenodd;fill:#A3A3A3;enable-background:new    ;}
	.st1{fill:#FE2323;}
	.st2{fill:#FE3636;}
	.st3{fill:#FE0000;}
	.st4{fill:#FE0101;}
	.st5{fill:#FE0202;}
	.st6{fill:#FEF3F3;}
</style>
<g>
	<path class="st0" d="M211.5,209.5c-1.1,0.9-2.4,1.3-4,1c0.3,2.2,0,4.2-1,6c0-2.3,0-4.7,0-7C208.2,209.5,209.8,209.5,211.5,209.5z"
		/>
</g>
<path class="st1" d="M25.8,220.5c-1.1,0-2.2,0-3.3,0c0-21,0-42,0-63c0.9-0.5,1.9-0.8,2.9-0.7C34.6,178,33.9,199.2,25.8,220.5z"/>
<path class="st2" d="M134.7,21.4c0.1-1,0.2-2.1,0.4-3.1c11,0,22.1,0,33.1,0c0.4,0.9,0.7,1.8,0.8,2.8
	C157.6,29.4,146.2,29.1,134.7,21.4z"/>
<path class="st3" d="M25.8,220.5c-0.1-21.3-0.3-42.5-0.4-63.8c3.3-10.3,11.9-10.1,20.2-10.2c27.5-0.1,55.1-0.6,82.6,0.2
	c11.1,0.3,14.5-3.2,13.6-14c-0.9-10.4-0.2-20.9-0.2-31.4c0-7.3,3.9-11.8,10.8-12c7.1-0.2,11,4.8,11.3,11.7c0.4,9.9,0.9,19.9,0,29.8
	c-1.1,11.9,2.1,17.3,15.2,15.9c11.4-1.2,23.1-0.2,34.7-0.2c13.5,0,20.4,6.7,20.5,20.2c0.1,14.3,0.1,28.7,0,43
	c-0.1,13.5-7.2,20.3-20.6,20.3c-56.7,0-113.5,0-170.2,0C35.7,230.2,29.1,228.4,25.8,220.5z"/>
<path class="st4" d="M134.7,21.4c11.4-0.1,22.8-0.2,34.3-0.3c35.5,6.9,62.1,36.3,64.9,71.7c0.6,8.1,0.6,16.7-9.6,17.9
	c-10.4,1.2-11.9-6.8-12.9-15.2c-3.8-32.4-27.1-54.1-57.8-54.4C122.4,40.8,99.4,61,93.9,93.7c-0.4,2.2-0.6,4.4-0.8,6.6
	c-0.8,7.1-4.6,11.4-11.9,10.7c-7.5-0.8-9.2-6.3-9.5-13.1C69.8,63.8,98,29.5,134.7,21.4z"/>
<path class="st5" d="M153.2,54.3c24.6,0.2,45.6,20.4,45.3,43.3c-0.1,6.8-1.8,12.4-9.2,13.4c-7.2,1-11.3-3.1-12.2-10.3
	c-1.9-14.4-9.5-24.3-24.3-24.3c-14.6,0-22.9,9-24.4,23.9c-0.7,7-4.8,11.5-12,10.6c-8.2-1-10.3-7.1-10-14.5
	C107.6,73.2,128.9,54,153.2,54.3z"/>
<path class="st6" d="M45.3,187.6c0.4-5.9,3.8-9.9,10.2-10.1c7.4-0.1,11.1,4.3,10.7,11.5c-0.3,6.6-4.6,10.1-10.9,9.8
	C49.4,198.5,45.5,194.7,45.3,187.6z"/>
<path class="st6" d="M96,177.4c6.5,0.9,10,4.6,9.9,11c-0.1,6.6-4.1,10.5-10.3,10.4c-7,0-11.2-4.3-10.6-11.7
	C85.6,180.5,89.9,177.7,96,177.4z"/>
</svg>
